<svg width="48" height="65" viewBox="0 0 48 65" fill="none" xmlns="http://www.w3.org/2000/svg">
<g clip-path="url(#clip0)">
<path d="M41.3849 47.0105C41.0837 46.3466 40.1422 46.27 39.7908 46.9083C38.8619 48.5426 37.205 49.5895 35.2343 49.5895C34.3807 49.5895 33.5397 49.398 32.7364 49.0022L30.8535 48.1085C30.4519 47.917 29.9749 48.0447 29.7113 48.4149C29.7113 48.4149 29.2468 49.0788 28.8326 49.6789C28.4184 50.2662 28.3556 51.0195 28.6569 51.6707L34.3305 64.0425C34.9079 65.3065 35.9121 65.332 36.5523 64.0936L38.6987 59.9696C39.0502 59.3057 39.9288 58.8844 40.6443 59.0376L45.1381 60.0207C46.4811 60.3143 47.1088 59.5228 46.5188 58.246L41.3849 47.0105Z" fill="white"/>
<path d="M18.2888 48.4149C18.0377 48.0447 17.5482 47.917 17.1465 48.1085L15.2636 49.0022C14.4477 49.3853 13.6067 49.5895 12.7657 49.5895C10.8076 49.5895 9.13812 48.5426 8.20925 46.9083C7.84524 46.27 6.91637 46.3466 6.61511 47.0105C5.29712 49.896 2.86197 55.2073 1.45612 58.2588C0.87871 59.5228 1.50633 60.3144 2.84942 60.0207L7.34314 59.0376C8.07118 58.8844 8.94984 59.2929 9.28875 59.9569L11.4352 64.0808C12.0754 65.3193 13.0795 65.2937 13.657 64.0297L19.3306 51.6579C19.6318 51.0067 19.5565 50.2535 19.1549 49.6661C18.7406 49.0788 18.2888 48.4149 18.2888 48.4149Z" fill="white"/>
<path d="M47.1468 22.9566L44.2723 20.9138C43.1426 20.1094 42.6907 18.4113 43.2806 17.1345L44.7744 13.9043C45.3643 12.6276 44.7116 11.4912 43.3309 11.3763L39.8413 11.0699C38.4606 10.955 37.243 9.70378 37.13 8.31211L36.8288 4.7627C36.7158 3.35827 35.5861 2.70712 34.3434 3.30719L31.1677 4.81378C29.9124 5.41385 28.243 4.95422 27.4522 3.80513L25.4438 0.881346C24.653 -0.26774 23.3601 -0.26774 22.5694 0.881346L20.561 3.80513C19.7702 4.95422 18.1007 5.41385 16.8581 4.81378L13.6823 3.30719C12.4145 2.69435 11.2974 3.3455 11.1844 4.74994L10.8832 8.29934C10.7576 9.70378 9.54006 10.9422 8.15931 11.0699L4.66977 11.3763C3.28902 11.4912 2.64885 12.6276 3.22626 13.9043L4.71998 17.1345C5.30994 18.4113 4.85806 20.1094 3.72835 20.9138L0.853872 22.9566C-0.275835 23.7609 -0.275835 25.076 0.853872 25.8804L3.72835 27.9232C4.85806 28.7275 5.30994 30.4256 4.71998 31.7024L3.22626 34.9326C2.6363 36.2094 3.28902 37.3457 4.66977 37.4606L8.15931 37.767C9.54006 37.8819 10.7576 39.1332 10.8706 40.5248L11.1719 44.0742C11.2848 45.4787 12.4145 46.1298 13.6572 45.5425L16.833 44.0232C18.0882 43.4231 19.7576 43.8827 20.5359 45.0318L22.5442 47.9556C23.335 49.1047 24.6279 49.1047 25.4187 47.9556L27.4271 45.0318C28.2179 43.8827 29.8873 43.4231 31.1426 44.0232L34.3183 45.5425C35.5735 46.1426 36.6907 45.4787 36.8037 44.0742L37.1049 40.5248C37.2179 39.1204 38.448 37.8819 39.8162 37.767L43.3058 37.4606C44.6865 37.3457 45.3267 36.1966 44.7367 34.9326L43.243 31.7024C42.653 30.4256 43.1049 28.7275 44.2346 27.9232L47.1091 25.8804C48.2765 25.0632 48.2765 23.7482 47.1468 22.9566ZM24.0003 39.0949C16.0296 39.0949 9.56517 32.5195 9.56517 24.4121C9.56517 16.3046 16.0296 9.72931 24.0003 9.72931C31.971 9.72931 38.4355 16.3046 38.4355 24.4121C38.4355 32.5195 31.971 39.0949 24.0003 39.0949Z" fill="white"/>
<path d="M24.9665 13.9678L27.3263 18.7429C27.5146 19.1259 27.8786 19.4068 28.3054 19.4706L33.5021 20.275C34.569 20.441 34.9958 21.7816 34.2301 22.5604L30.5021 26.3141C30.2008 26.6205 30.0627 27.0546 30.1255 27.4887L30.9791 32.7618C31.1548 33.847 30.0376 34.6769 29.0711 34.1662L24.4017 31.7148C24.0251 31.5105 23.5732 31.5105 23.1966 31.7148L18.5272 34.1662C17.5607 34.6769 16.4435 33.847 16.6192 32.7618L17.4728 27.4887C17.5355 27.0546 17.3975 26.6205 17.0962 26.3141L13.3682 22.5604C12.6025 21.7816 13.0293 20.441 14.0962 20.275L19.2929 19.4706C19.7196 19.4068 20.0837 19.1387 20.272 18.7429L22.6318 13.9678C23.0962 12.9847 24.477 12.9847 24.9665 13.9678Z" fill="white"/>
</g>
<defs>
<clipPath id="clip0">
<rect width="48" height="65" fill="white"/>
</clipPath>
</defs>
</svg>
