<svg width="26" height="25" viewBox="0 0 26 25" fill="none" xmlns="http://www.w3.org/2000/svg">
<path fill-rule="evenodd" clip-rule="evenodd" d="M3.35009 3.25211C3.02635 3.61113 2.72229 3.98831 2.43962 4.38193L7.91094 7.538L19.6177 0.766993C19.1341 0.479944 18.6303 0.223397 18.109 0L7.91094 5.8781L3.35009 3.25211ZM1.07792 6.77781C1.26906 6.33871 1.48367 5.91222 1.72016 5.49992L7.91094 9.06437L20.8569 1.60239C21.2601 1.90923 21.6449 2.23912 22.0093 2.59009L7.91094 10.7145L1.07792 6.77781ZM26 11.9779C26 19.1698 20.1797 25 13 25C5.8203 25 0 19.1698 0 11.9779C0 11.6792 0.010042 11.3828 0.0298064 11.0891L7.91094 15.6365L24.5571 6.0093C25.4792 7.79728 26 9.82669 26 11.9779ZM7.91094 13.9767L0.225711 9.54917C0.318163 9.05826 0.438121 8.57707 0.583918 8.10729L7.91094 12.3269L22.9876 3.64178C23.2955 4.01153 23.5833 4.39865 23.8494 4.80144L7.91094 13.9767Z" fill="#828088"/>
</svg>
