<svg width="12" height="21" viewBox="0 0 12 21" fill="none" xmlns="http://www.w3.org/2000/svg">
<path d="M9.60938 20.5975C9.86719 20.858 10.1953 21 10.582 21C11.3555 21 11.9766 20.3844 11.9766 19.6032C11.9766 19.2125 11.8125 18.8574 11.543 18.5851L3.33984 10.4882L11.543 2.41488C11.8125 2.14262 11.9766 1.77565 11.9766 1.39684C11.9766 0.615558 11.3555 0 10.582 0C10.1953 0 9.86719 0.142052 9.60938 0.40248L0.492188 9.3991C0.164062 9.70688 0.0117188 10.0857 0 10.5C0 10.9143 0.164062 11.2694 0.492188 11.5891L9.60938 20.5975Z" fill="#2C2C2C"/>
</svg>
